<svg width="24" height="24" viewBox="0 0 24 24" fill="none" xmlns="http://www.w3.org/2000/svg">
<path d="M6.70992 9.29001C6.61722 9.38253 6.54367 9.49242 6.49349 9.61339C6.44331 9.73436 6.41748 9.86405 6.41748 9.99501C6.41748 10.126 6.44331 10.2557 6.49349 10.3766C6.54367 10.4976 6.61722 10.6075 6.70992 10.7L11.2999 15.29C11.3924 15.3827 11.5023 15.4563 11.6233 15.5064C11.7443 15.5566 11.874 15.5825 12.0049 15.5825C12.1359 15.5825 12.2656 15.5566 12.3865 15.5064C12.5075 15.4563 12.6174 15.3827 12.7099 15.29L17.2999 10.7C17.3925 10.6074 17.4659 10.4975 17.5161 10.3766C17.5662 10.2556 17.5919 10.1259 17.5919 9.99501C17.5919 9.86408 17.5662 9.73444 17.5161 9.61347C17.4659 9.49251 17.3925 9.3826 17.2999 9.29001C17.2073 9.19743 17.0974 9.12399 16.9765 9.07389C16.8555 9.02378 16.7259 8.99799 16.5949 8.99799C16.464 8.99799 16.3343 9.02378 16.2134 9.07389C16.0924 9.12399 15.9825 9.19743 15.8899 9.29001L11.9999 13.17L8.11992 9.29001C7.72992 8.90001 7.08992 8.91001 6.70992 9.29001Z" fill="black"/>
</svg>
