<svg width="96" height="42" viewBox="0 0 96 42" fill="none" xmlns="http://www.w3.org/2000/svg">
<path d="M0 14L2.5 11L7.5 8H13L19.5 11L26 14L32.5 19L43 22L50 19H56.5H62L66.5 14V5.5L70 4H75.5H81.5L87 0.5H92L96 4V42H0V14Z" fill="url(#paint0_linear_138_98)"/>
<path d="M94 26L92 26L90.5 25.5L89.5 24.7946L89 23.5V21.5L92 11V10L91.5 9L88.5 7.5H87.5L86.5 8C86.5 8 82.5 14 80 10.5C77.5 7.00001 76 9.50001 76 9.50001C74.5 14.5 76.2266 13.5913 76.8633 14.8155C91 42 70 37.5001 70 37.5001L67 34L65 28.8368L62 26.2171L58.5 24.7946H55L48.5908 27.1947L45.8298 28.6442L42.6889 29.2965L39.6465 29.3277L36.5497 28.8368L33.3061 27.8089L30.521 26.2171L28.3437 23.9847L21.5 19.4316L16 15.9705L10 14.6568L5.5 16.0292L3 17.2805L2 20.5001" stroke="#F5B766"/>
<defs>
<linearGradient id="paint0_linear_138_98" x1="48" y1="0.5" x2="48" y2="42" gradientUnits="userSpaceOnUse">
<stop stop-color="#F8DEBD"/>
<stop offset="1" stop-color="#F8DEBD" stop-opacity="0"/>
</linearGradient>
</defs>
</svg>
