<svg width="96" height="38" viewBox="0 0 96 38" fill="none" xmlns="http://www.w3.org/2000/svg">
<path d="M0 24.5L3.5 22L7.5 20L12.5 19H18L22 20H27.5L33.5 19L36 17V13L37.5 9L40.5 6L45 3.5L49.5 2L54 1H58.5L62 3.5L65.5 7L69 10.5L71.5 13L74.5 14L77 13L78.5 9L82 7L87 6L96 0V38H0V24.5Z" fill="url(#paint0_linear_138_103)"/>
<path d="M95.5 21L95 19.985L94 18.5L92.5 16.5003L91.5 15.4318L90 14L88 12.0294L86.5 10.657L84 10L82 10.657L80.5 12.0294L79.5 14.5C79.5 14.5 79.5 13.8434 79.5 17.5002C79.5 21.157 76.5 22.2174 76.5 22.2174C75 27.2174 57.3323 4.64106 56 5.00022C17.0497 15.5003 66 21.5002 66 21.5002L67 23.8091L66 27L63.5 29L61 30.5H58H55L52 30L50 29L47.5 28L42.5 23L40 22.2174H37H35L33 23L31 23.8091L29.5 24.837L27 25.5H25H23L20.1939 24.837L18 23L16 22.2174H14.5H12L9 23L7 23.8091L5 24.837L2.5 26.5L1 28" stroke="#E3B2B3"/>
<defs>
<linearGradient id="paint0_linear_138_103" x1="48" y1="0" x2="48" y2="38" gradientUnits="userSpaceOnUse">
<stop stop-color="#F3DBDC"/>
<stop offset="1" stop-color="#F3DBDC" stop-opacity="0"/>
</linearGradient>
</defs>
</svg>
