<svg width="24" height="24" viewBox="0 0 24 24" fill="none" xmlns="http://www.w3.org/2000/svg">
<rect width="24" height="24" fill="#8CC5CA"/>
<path d="M0 0H24V24H0V0Z" fill="#8CC5CA"/>
<rect x="5" y="6" width="13" height="18" fill="#26505C"/>
<rect x="10.5715" width="1.85714" height="8.21053" fill="#898E91"/>
<g clip-path="url(#clip0_86_22)">
<path d="M13.7452 2.16033C13.3795 1.6267 13.2179 1.17285 13.1253 0.902058C13.096 0.816746 12.9988 0.816746 12.9698 0.902058C12.8772 1.17285 12.7156 1.6267 12.35 2.16033C12.121 2.49467 11.8953 2.9841 11.8953 3.46627C11.8953 4.289 12.3941 4.84612 13.0476 4.84612C13.701 4.84612 14.1999 4.28865 14.1999 3.46627C14.1999 2.9651 13.9741 2.49467 13.7452 2.16033Z" fill="#E5322E"/>
<path d="M13.3661 3.38923C13.5503 2.972 13.5242 2.56374 13.6699 2.63731C13.8678 2.73782 14.0869 3.25419 14.0048 3.7222C13.9461 4.05585 13.7569 4.2579 13.5158 4.16154C13.3211 4.08382 13.2001 3.76502 13.3661 3.38923Z" fill="#FF6050"/>
</g>
<ellipse cx="14.5476" cy="20.9474" rx="1.54762" ry="0.947368" fill="#D9D9D9"/>
<rect x="11.1904" y="19.5789" width="0.619048" height="3.15789" fill="#D9D9D9"/>
<rect x="6.23804" y="9.47369" width="10.5238" height="8.8421" fill="#D9D9D9"/>
<rect x="6.85718" y="10.1053" width="9.28571" height="7.57895" fill="#898E91"/>
<ellipse cx="8.28102" cy="20.9474" rx="1.54762" ry="0.947368" fill="#D9D9D9"/>
<defs>
<clipPath id="clip0_86_22">
<rect width="3.71429" height="4.42105" fill="white" transform="translate(11.1904 0.631592)"/>
</clipPath>
</defs>
</svg>
