<svg width="20" height="20" viewBox="0 0 20 20" fill="none" xmlns="http://www.w3.org/2000/svg">
<g clip-path="url(#clip0_116_38)">
<path d="M10 10C13.1563 10 15.7143 7.76172 15.7143 5C15.7143 2.23828 13.1563 0 10 0C6.84375 0 4.28571 2.23828 4.28571 5C4.28571 7.76172 6.84375 10 10 10ZM4.64286 16.5625C4.64286 17.082 5.12054 17.5 5.71429 17.5C6.30804 17.5 6.78571 17.082 6.78571 16.5625C6.78571 16.043 6.30804 15.625 5.71429 15.625C5.12054 15.625 4.64286 16.043 4.64286 16.5625ZM14.2857 11.2734V13.1875C15.9152 13.4766 17.1429 14.7422 17.1429 16.25V17.8789C17.1429 18.1758 16.9018 18.4336 16.567 18.4922L15.1295 18.7422C14.9375 18.7773 14.75 18.668 14.7098 18.4961L14.5714 17.8828C14.5313 17.7148 14.6563 17.5469 14.8527 17.5156L15.7143 17.3633V16.25C15.7143 13.7969 11.4286 13.707 11.4286 16.3242V17.3672L12.2902 17.5195C12.4821 17.5547 12.6071 17.7187 12.5714 17.8867L12.433 18.5C12.3929 18.668 12.2054 18.7773 12.0134 18.7461L10.6205 18.582C10.2679 18.5391 10.0045 18.2773 10.0045 17.9609V16.25C10.0045 14.7422 11.2321 13.4805 12.8616 13.1875V11.4219C12.7634 11.4492 12.6652 11.4648 12.567 11.4961C11.7634 11.7422 10.9018 11.8789 10.0045 11.8789C9.10714 11.8789 8.24554 11.7422 7.44196 11.4961C7.11161 11.3945 6.77679 11.332 6.43304 11.293V14.4805C7.46429 14.75 8.21875 15.5781 8.21875 16.5664C8.21875 17.7734 7.09821 18.7539 5.71875 18.7539C4.33929 18.7539 3.21875 17.7734 3.21875 16.5664C3.21875 15.5781 3.97321 14.75 5.00446 14.4805V11.3398C2.16518 11.7578 0 13.8984 0 16.5V18.25C0 19.2148 0.897321 20 2 20H18C19.1027 20 20 19.2148 20 18.25V16.5C20 13.6875 17.4643 11.4102 14.2857 11.2734Z" fill="black"/>
</g>
<defs>
<clipPath id="clip0_116_38">
<rect width="20" height="20" fill="white"/>
</clipPath>
</defs>
</svg>
