<svg width="24" height="24" viewBox="0 0 24 24" fill="none" xmlns="http://www.w3.org/2000/svg">
<path fill-rule="evenodd" clip-rule="evenodd" d="M8.13179 2.24997C6.32756 2.24997 4.79297 2.93847 3.71721 4.19397C2.65132 5.43597 2.11768 7.13697 2.11768 9.01947C2.11768 12.2895 3.68473 14.895 5.67532 16.9215C7.65744 18.939 10.1506 20.4735 12.2146 21.621C12.3654 21.705 12.5331 21.7492 12.7034 21.7497C12.8738 21.7503 13.0417 21.7071 13.193 21.624C15.2584 20.4885 17.7501 18.942 19.7337 16.914C21.7243 14.8815 23.2941 12.267 23.2941 9.01947C23.2941 7.12947 22.7577 5.42997 21.6904 4.18797C20.6132 2.93547 19.0786 2.24847 17.28 2.24847C15.761 2.24847 14.5045 2.84697 13.5487 3.97497C13.2222 4.36598 12.9394 4.79585 12.7059 5.25597C12.4724 4.79585 12.1896 4.36598 11.8631 3.97497C10.9073 2.84697 9.65085 2.24997 8.13179 2.24997Z" fill="#FF0600"/>
<path d="M2.66361 13.0887H7.1229C7.57504 13.0887 7.84633 12.9379 7.93633 12.6364L9.44319 7.44598L12.0858 19.3414C12.2062 19.8837 13.3213 19.8763 13.4619 19.3414L16.0235 10.3388L16.6158 12.576C16.7062 12.9231 16.9672 13.0887 17.4395 13.0887H21.3369C21.7389 13.0887 22.0603 12.855 22.0603 12.5615C22.0603 12.26 21.7488 12.0263 21.3369 12.0263H17.781L16.626 8.19169C16.4752 7.67194 15.4406 7.67194 15.27 8.21419L12.7488 16.6594L10.1173 4.65855C10.0068 4.13141 8.97176 4.1163 8.81104 4.65855L6.68147 12.0263H2.66361C2.26161 12.0263 1.94019 12.2674 1.94019 12.5612C1.94019 12.855 2.26161 13.0887 2.66361 13.0887Z" fill="white"/>
</svg>
