<svg width="24" height="24" viewBox="0 0 24 24" fill="none" xmlns="http://www.w3.org/2000/svg">
<path d="M0 0H24V24H0V0Z" fill="white"/>
<rect x="5" y="6" width="13" height="18" fill="#26505C"/>
<rect x="10.5715" width="1.85714" height="8.21053" fill="#898E91"/>
<g clip-path="url(#clip0_86_34)">
<path d="M13.7452 2.1603C13.3795 1.62667 13.2179 1.17282 13.1253 0.902028C13.096 0.816715 12.9988 0.816715 12.9698 0.902028C12.8772 1.17282 12.7156 1.62667 12.35 2.1603C12.121 2.49464 11.8953 2.98407 11.8953 3.46624C11.8953 4.28897 12.3941 4.84609 13.0476 4.84609C13.701 4.84609 14.1999 4.28862 14.1999 3.46624C14.1999 2.96507 13.9741 2.49464 13.7452 2.1603Z" fill="#E5322E"/>
<path d="M13.3661 3.38923C13.5503 2.972 13.5242 2.56374 13.6699 2.63731C13.8678 2.73782 14.0869 3.25419 14.0048 3.7222C13.9461 4.05585 13.7569 4.2579 13.5158 4.16154C13.3211 4.08382 13.2001 3.76502 13.3661 3.38923Z" fill="#FF6050"/>
</g>
<ellipse cx="14.5476" cy="20.9474" rx="1.54762" ry="0.947368" fill="#D9D9D9"/>
<rect x="11.1904" y="19.5789" width="0.619048" height="3.15789" fill="#D9D9D9"/>
<rect x="6.23804" y="9.47369" width="10.5238" height="8.8421" fill="#D9D9D9"/>
<rect x="6.85718" y="10.1053" width="9.28571" height="7.57895" fill="#898E91"/>
<ellipse cx="8.28102" cy="20.9474" rx="1.54762" ry="0.947368" fill="#D9D9D9"/>
<defs>
<clipPath id="clip0_86_34">
<rect width="3.71429" height="4.42105" fill="white" transform="translate(11.1904 0.631592)"/>
</clipPath>
</defs>
</svg>
