<svg width="40" height="28" viewBox="0 0 40 28" fill="none" xmlns="http://www.w3.org/2000/svg">
<path d="M29.3718 1.93416C22.525 1.93416 20.0093 6.762 20.0093 6.762C20.0093 6.762 17.5281 1.93416 10.6343 1.93416C5.45309 1.93416 -0.453159 4.76747 1.72809 11.2082C3.90934 17.6489 20.0281 25.6723 20.0281 25.6723C20.0281 25.6723 36.0875 17.6489 38.2718 11.2082C40.4531 4.76747 34.9718 1.93416 29.3718 1.93416Z" fill="#F44336"/>
<path d="M9.57822 2.415C14.9532 2.415 17.622 6.40191 18.4845 8.01694C18.6063 8.24766 19.072 8.25413 19.2126 8.02988L20.0001 6.75985C18.8907 4.31466 15.8407 1.93416 10.6345 1.93416C8.47822 1.93416 6.2001 2.42578 4.42822 3.46294C5.99385 2.75353 7.82822 2.415 9.57822 2.415ZM29.372 1.93416C27.7188 1.93416 26.2126 2.18213 25.0376 2.68238C25.8626 2.46244 26.8845 2.415 27.897 2.415C32.9626 2.415 37.497 5.06503 35.4501 11.1909C33.6939 16.45 23.4313 22.8304 20.297 25.2648C20.097 25.42 20.0282 25.6702 20.0282 25.6702C20.0282 25.6702 36.0876 17.6468 38.272 11.206C40.4532 4.76747 34.9813 1.93416 29.372 1.93416Z" fill="#CC3333"/>
<path d="M5.32506 5.35181C6.49694 4.34269 8.59069 3.50822 10.3657 4.46991C11.3251 4.98956 10.9063 6.05475 10.0469 6.50325C8.79694 7.15875 7.70944 7.55335 6.94694 8.57972C6.49069 9.19641 6.21569 9.87131 6.07506 10.5592C6.01881 10.8308 5.50319 10.8977 5.30944 10.6583C3.99069 9.04547 3.61569 6.82453 5.32506 5.35181ZM24.1126 7.47356C23.5626 7.47356 23.1751 7.107 23.3751 6.75338C23.7469 6.10219 24.2282 5.47256 24.8063 4.91194C25.6626 4.08394 27.2907 3.60094 28.3219 4.10335C29.3782 4.61653 29.2407 5.64291 28.5001 6.13884C26.9094 7.20188 24.9032 7.47356 24.1126 7.47356Z" fill="#FF8A80"/>
<g clip-path="url(#clip0_245_36)">
<path d="M17.25 12.9371H14.295C14.2427 12.9318 14.1898 12.9318 14.1375 12.9371H14.01C13.9708 12.9539 13.9332 12.9727 13.8975 12.9934C13.8557 13.0141 13.8157 13.0366 13.7775 13.0609C13.7525 13.0839 13.7299 13.1083 13.71 13.134C13.6756 13.1695 13.6455 13.2071 13.62 13.2465L12.42 15.7273L9.2925 9.37062C9.23995 9.26202 9.14409 9.16819 9.01796 9.10188C8.89182 9.03557 8.74153 9 8.5875 9C8.43347 9 8.28318 9.03557 8.15704 9.10188C8.03091 9.16819 7.93505 9.26202 7.8825 9.37062L6.15 12.9371H3.75C3.55109 12.9371 3.36032 12.9964 3.21967 13.1019C3.07902 13.2074 3 13.3505 3 13.4997C3 13.6489 3.07902 13.7919 3.21967 13.8974C3.36032 14.0029 3.55109 14.0622 3.75 14.0622H6.975C7.01763 14.0468 7.05787 14.028 7.095 14.006C7.13676 13.9853 7.17683 13.9627 7.215 13.9385L7.2825 13.8653C7.31825 13.8306 7.34845 13.7928 7.3725 13.7528L8.5875 11.2045L11.7075 17.6287C11.7599 17.7374 11.8557 17.8314 11.9818 17.8978C12.108 17.9643 12.2584 18 12.4125 18C12.5666 18 12.717 17.9643 12.8432 17.8978C12.9693 17.8314 13.0651 17.7374 13.1175 17.6287L14.8425 14.0622H17.25C17.4489 14.0622 17.6397 14.0029 17.7803 13.8974C17.921 13.7919 18 13.6489 18 13.4997C18 13.3505 17.921 13.2074 17.7803 13.1019C17.6397 12.9964 17.4489 12.9371 17.25 12.9371Z" fill="white"/>
</g>
<path d="M28.1758 8.96875V9.27344H27.2383V15.6953H27.8711C27.9102 15.6953 27.9492 15.6992 27.9883 15.707C28.1133 15.7305 28.1758 15.8281 28.1758 16H25.2344V15.6953H26.1719V10.0586L23.5117 16.0703H23.2656L20.7109 10.7734V15.6953H21.3438C21.3828 15.6953 21.4219 15.6992 21.4609 15.707C21.5859 15.7305 21.6484 15.8281 21.6484 16H19.3047V15.6953H20.2422V9.27344H19.3047V8.96875H21.0625L23.7344 14.5586L26.1719 8.96875H28.1758Z" fill="white"/>
<path d="M33.7656 17.1367C33.7656 17.6211 33.5898 18.0391 33.2383 18.3906C32.7383 18.875 32.0352 19.1172 31.1289 19.1172C30.3477 19.1172 29.6562 18.918 29.0547 18.5195C29.0547 18.6758 29.0469 18.7891 29.0312 18.8594C28.9922 18.9688 28.8789 19.0234 28.6914 19.0234V16.5859H29.0664C29.0742 16.6641 29.082 16.7461 29.0898 16.832C29.2695 18.1367 29.9258 18.7891 31.0586 18.7891C31.3477 18.7891 31.6133 18.7383 31.8555 18.6367C32.3711 18.4023 32.6289 18.0117 32.6289 17.4648C32.6289 17.2617 32.582 17.0742 32.4883 16.9023C32.3008 16.5742 31.8594 16.2539 31.1641 15.9414C30.4062 15.5977 29.9609 15.3867 29.8281 15.3086C29.1016 14.8945 28.7383 14.3594 28.7383 13.7031C28.7383 13.2578 28.8984 12.875 29.2188 12.5547C29.6953 12.0859 30.3594 11.8516 31.2109 11.8516C31.9062 11.8516 32.543 12.0039 33.1211 12.3086C33.1211 12.2305 33.1289 12.1641 33.1445 12.1094C33.168 11.9766 33.2812 11.9102 33.4844 11.9102V13.9727H33.1094C33.1172 13.5273 33.0039 13.1523 32.7695 12.8477C32.4336 12.4023 31.9414 12.1797 31.293 12.1797C31.043 12.1797 30.8125 12.2227 30.6016 12.3086C30.1172 12.5039 29.875 12.8516 29.875 13.3516C29.875 13.5391 29.918 13.7188 30.0039 13.8906C30.1836 14.2109 30.6172 14.5234 31.3047 14.8281C32.0703 15.1719 32.5156 15.3828 32.6406 15.4609C33.3906 15.8906 33.7656 16.4492 33.7656 17.1367Z" fill="white"/>
<defs>
<clipPath id="clip0_245_36">
<rect width="25" height="10" fill="white" transform="translate(1 9)"/>
</clipPath>
</defs>
</svg>
