<svg width="24" height="24" viewBox="0 0 24 24" fill="none" xmlns="http://www.w3.org/2000/svg">
<rect width="24" height="24" fill="#F8DEBD"/>
<path d="M12 20C11.7167 20 11.4793 19.904 11.288 19.712C11.0967 19.52 11.0007 19.2827 11 19V15C11 14.7167 11.096 14.4793 11.288 14.288C11.48 14.0967 11.7173 14.0007 12 14H14.5C14.7833 14 15.021 14.096 15.213 14.288C15.405 14.48 15.5007 14.7173 15.5 15V19C15.5 19.2833 15.404 19.521 15.212 19.713C15.02 19.905 14.7827 20.0007 14.5 20H12ZM12.5 18.5H14V15.5H12.5V18.5ZM17 22V19.25C17 18.9667 17.096 18.7293 17.288 18.538C17.48 18.3467 17.7173 18.2507 18 18.25H20V17.5H17V16H20.5C20.7833 16 21.021 16.096 21.213 16.288C21.405 16.48 21.5007 16.7173 21.5 17V18.75C21.5 19.0333 21.404 19.271 21.212 19.463C21.02 19.655 20.7827 19.7507 20.5 19.75H18.5V20.5H21.5V22H17ZM9 21.95C6.95 21.7167 5.27067 20.8377 3.962 19.313C2.65333 17.7883 1.99933 15.9507 2 13.8C2 12.1333 2.66267 10.321 3.988 8.363C5.31333 6.405 7.31733 4.284 10 2C12.2 3.86667 13.946 5.63333 15.238 7.3C16.53 8.96667 17.3673 10.5333 17.75 12H11C10.45 12 9.97933 12.196 9.588 12.588C9.19667 12.98 9.00067 13.4507 9 14V21.95Z" fill="#FF956C"/>
</svg>
